<?xml version="1.0" encoding="utf-8"?>

<!-- Uploaded to: SVG Repo, www.svgrepo.com, Generator: SVG Repo Mixer Tools -->
<svg version="1.1" id="Icons" xmlns="http://www.w3.org/2000/svg" xmlns:xlink="http://www.w3.org/1999/xlink" 
	 viewBox="0 0 24 24" xml:space="preserve">
<style type="text/css">
	.st0{fill:none;stroke:currentColor;stroke-width:2;stroke-linecap:round;stroke-linejoin:round;stroke-miterlimit:10;}
	.st1{fill:none;stroke:currentColor ;stroke-width:2;stroke-linejoin:round;stroke-miterlimit:10;}
</style>
<line class="st0" x1="12" y1="2.25" x2="12" y2="21.75"/>
<path class="st0" d="M12,17.25c-2.9025,0-5.25-2.3475-5.25-5.25s2.3475-5.25,5.25-5.25"/>
<line class="st0" x1="5.1075" y1="5.1075" x2="6.6975" y2="6.6975"/>
<line class="st0" x1="2.25" y1="12" x2="4.5" y2="12"/>
<line class="st0" x1="5.1075" y1="18.8925" x2="6.6975" y2="17.3025"/>
<path class="st0" d="M12,9.4125C12.9,7.8225,14.61,6.75,16.5675,6.75c0.12,0,0.2325,0.0075,0.3525,0.015c-1.2525,0.66-2.1,1.9725-2.1,3.48
	c0,2.175,1.7625,3.9375,3.9375,3.9375c1.2,0,2.2725-0.54,2.9925-1.3875C21.36,15.3225,19.1925,17.25,16.5675,17.25c-1.9575,0-3.6675-1.0725-4.5675-2.6625"/>
</svg>